<svg width="800" height="500" viewBox="0 0 800 500" fill="none" xmlns="http://www.w3.org/2000/svg">
  <defs>
    <linearGradient id="bg" x1="72" y1="48" x2="742" y2="452" gradientUnits="userSpaceOnUse">
      <stop stop-color="#0F172A" />
      <stop offset="0.55" stop-color="#17324F" />
      <stop offset="1" stop-color="#1F8A70" />
    </linearGradient>
    <linearGradient id="card" x1="94" y1="86" x2="706" y2="426" gradientUnits="userSpaceOnUse">
      <stop stop-color="#122033" />
      <stop offset="1" stop-color="#0D1624" />
    </linearGradient>
    <linearGradient id="line" x1="0" y1="0" x2="1" y2="1">
      <stop stop-color="#E3A008" />
      <stop offset="1" stop-color="#70F0D0" />
    </linearGradient>
  </defs>
  <rect width="800" height="500" rx="32" fill="url(#bg)" />
  <g opacity="0.15" stroke="#D6E4F0">
    <path d="M80 90H720" />
    <path d="M80 150H720" />
    <path d="M80 210H720" />
    <path d="M80 270H720" />
    <path d="M80 330H720" />
    <path d="M80 390H720" />
    <path d="M140 70V430" />
    <path d="M220 70V430" />
    <path d="M300 70V430" />
    <path d="M380 70V430" />
    <path d="M460 70V430" />
    <path d="M540 70V430" />
    <path d="M620 70V430" />
  </g>
  <rect x="56" y="56" width="688" height="388" rx="28" fill="url(#card)" stroke="#35506C" stroke-width="2" />
  <g opacity="0.9">
    <text x="92" y="118" fill="#DCE7F3" font-family="Montserrat, Arial, sans-serif" font-size="19" font-weight="700" letter-spacing="2.6">TIRE FLEET TELEMETRY PIPELINE</text>
    <text x="92" y="155" fill="#FFFFFF" font-family="Montserrat, Arial, sans-serif" font-size="42" font-weight="700">16.8M+ events</text>
    <text x="92" y="186" fill="#B6C6D7" font-family="Lato, Arial, sans-serif" font-size="20">Ingestion, QA, fleet analytics, and warehouse design</text>
  </g>
  <g>
    <rect x="92" y="233" width="176" height="78" rx="18" fill="#0F1B2A" stroke="#27415C" />
    <text x="114" y="260" fill="#8FA6BC" font-family="Montserrat, Arial, sans-serif" font-size="12" font-weight="700" letter-spacing="1.8">QUALITY CHECKS</text>
    <text x="114" y="289" fill="#FFFFFF" font-family="Montserrat, Arial, sans-serif" font-size="28" font-weight="700">443,952</text>
    <text x="114" y="309" fill="#AFC0D0" font-family="Lato, Arial, sans-serif" font-size="16">violations detected</text>
  </g>
  <g>
    <rect x="286" y="233" width="176" height="78" rx="18" fill="#0F1B2A" stroke="#27415C" />
    <text x="308" y="260" fill="#8FA6BC" font-family="Montserrat, Arial, sans-serif" font-size="12" font-weight="700" letter-spacing="1.8">CLEAN OUTPUT</text>
    <text x="308" y="289" fill="#FFFFFF" font-family="Montserrat, Arial, sans-serif" font-size="28" font-weight="700">49,200</text>
    <text x="308" y="309" fill="#AFC0D0" font-family="Lato, Arial, sans-serif" font-size="16">validated tire-day rows</text>
  </g>
  <g>
    <rect x="92" y="328" width="370" height="86" rx="18" fill="#0F1B2A" stroke="#27415C" />
    <text x="114" y="355" fill="#8FA6BC" font-family="Montserrat, Arial, sans-serif" font-size="12" font-weight="700" letter-spacing="1.8">PIPELINE FOCUS</text>
    <text x="114" y="381" fill="#DCE7F3" font-family="Lato, Arial, sans-serif" font-size="18">Parquet ingestion  •  speed-cap validation  •  mapping coverage</text>
    <text x="114" y="405" fill="#DCE7F3" font-family="Lato, Arial, sans-serif" font-size="18">star schema design  •  SCD Type 2 history  •  fleet inactivity analysis</text>
  </g>
  <g opacity="0.85">
    <path d="M528 356C553 328 570 300 590 266C606 239 630 206 664 188C694 172 714 162 722 139" stroke="url(#line)" stroke-width="7" stroke-linecap="round" />
    <circle cx="528" cy="356" r="8" fill="#E3A008" />
    <circle cx="590" cy="266" r="8" fill="#F8D163" />
    <circle cx="664" cy="188" r="8" fill="#70F0D0" />
    <circle cx="722" cy="139" r="8" fill="#B6FFF1" />
  </g>
  <g>
    <circle cx="617" cy="282" r="88" stroke="#2B4258" stroke-width="18" />
    <circle cx="617" cy="282" r="56" stroke="#E3A008" stroke-width="10" opacity="0.95" />
    <circle cx="617" cy="282" r="18" fill="#DCE7F3" />
    <path d="M617 194V248" stroke="#DCE7F3" stroke-width="8" stroke-linecap="round" />
    <path d="M705 282H651" stroke="#DCE7F3" stroke-width="8" stroke-linecap="round" />
    <path d="M617 370V316" stroke="#DCE7F3" stroke-width="8" stroke-linecap="round" />
    <path d="M529 282H583" stroke="#DCE7F3" stroke-width="8" stroke-linecap="round" />
  </g>
  <g>
    <rect x="516" y="92" width="192" height="70" rx="18" fill="#102235" stroke="#2A435E" />
    <text x="540" y="119" fill="#8FA6BC" font-family="Montserrat, Arial, sans-serif" font-size="12" font-weight="700" letter-spacing="1.8">WAREHOUSE READY</text>
    <text x="540" y="145" fill="#FFFFFF" font-family="Montserrat, Arial, sans-serif" font-size="22" font-weight="700">Fact + dimensions</text>
  </g>
</svg>
